# xmcd
#
# Track frame offsets:
#	150
#	14807
#	31760
#	45695
#	61420
#	80085
#	95500
#	113707
#	129830
#	148992
#	167357
#
# Disc length: 2491 seconds
#
# Revision: 0
# Processed by: cddbd v1.5.1PL0 Copyright (c) Steve Scherf et al.
# Submitted via: dBpowerAMP V4.0
#
DISCID=9009b90b
DTITLE=Johanna - Johanna
DYEAR=1900
DGENRE=Pop
TTITLE0=Kesäyö
TTITLE1=Yksinäinen
TTITLE2=Anteeksi
TTITLE3=Sydän sun ja mun
TTITLE4=Murhe
TTITLE5=Tuulen Viemää
TTITLE6=Nuori Sydän
TTITLE7=Kaihomieli ja Surusilmä
TTITLE8=Elämäni Kuvat
TTITLE9=Nuorallatanssija
TTITLE10=Sudenhetki
EXTD=
EXTT0=
EXTT1=
EXTT2=
EXTT3=
EXTT4=
EXTT5=
EXTT6=
EXTT7=
EXTT8=
EXTT9=
EXTT10=
PLAYORDER=
